<svg width="8.9634mm" height="34.51mm" version="1.1" viewBox="0 0 8.9634 34.51" xmlns="http://www.w3.org/2000/svg">
 <path d="m7.2609 34.091c-0.20868-0.24681-0.53749-0.68252-0.73068-0.96824-0.19319-0.28572-0.3985-0.55496-0.45625-0.59831-0.05775-0.0434-0.486-0.24326-0.95167-0.44424-1.1373-0.49086-2.1412-0.99814-2.4666-1.2463-0.56807-0.43329-0.56159-1.044 0.01108-1.044 0.43321 0 1.1588 0.30193 1.8722 0.77911 0.34938 0.23368 0.6531 0.40702 0.67492 0.3852 0.06647-0.0665-0.30261-0.85501-0.49945-1.0671-0.21716-0.23394-1.3518-0.90892-2.5817-1.5359-1.3625-0.69455-1.7801-1.2234-1.2434-1.5751 0.18108-0.11865 0.27063-0.12439 0.61383-0.0393 0.55074 0.13649 1.4504 0.68396 2.2039 1.3411 0.71167 0.62067 0.6881 0.66473 0.32934-0.61555l-0.18956-0.67647-1.0777-0.73215c-1.9739-1.341-2.3458-1.6982-2.3458-2.2537 0-0.53966 0.51726-0.61239 1.2455-0.17514 0.25704 0.15433 0.79247 0.6235 1.1899 1.0426l0.72252 0.762-0.05548-0.6752c-0.05539-0.67412-0.05619-0.67595-0.49945-1.1298-0.24418-0.25002-0.94664-0.87071-1.561-1.3793-1.1886-0.98397-1.4653-1.29-1.4653-1.6205 0-0.22425 0.2344-0.48688 0.43454-0.48688 0.51934 0 1.9418 1.2342 2.5366 2.201 0.14337 0.23301 0.2955 0.42364 0.33807 0.42364 0.1112 0 0.09563-0.99217-0.01902-1.2121-0.1338-0.25663-0.89461-1.1284-1.8608-2.1323-0.44821-0.46567-0.87699-0.9686-0.95283-1.1176-0.41458-0.81463 0.21582-1.2144 0.84414-0.53534 0.17134 0.18519 0.38072 0.35867 0.46529 0.38551 0.21098 0.067 0.87853 0.973 1.2457 1.6908 0.29683 0.58023 0.30444 0.58736 0.36141 0.33871 0.13311-0.58093 0.07998-0.92127-0.23129-1.4817-0.16812-0.30268-0.43763-0.79798-0.5989-1.1007-0.16127-0.30269-0.39999-0.66464-0.53047-0.80434s-0.32149-0.45282-0.42446-0.69583-0.24018-0.4858-0.30493-0.53953c-0.28568-0.2371-0.02963-0.83897 0.35691-0.83897 0.21864 0 0.65187 0.40393 0.87262 0.81362 0.09761 0.18116 0.25275 0.42463 0.34475 0.54105 0.092 0.11641 0.26564 0.55456 0.38586 0.97366 0.12023 0.4191 0.24972 0.79358 0.28776 0.83217 0.03804 0.0386 0.15174-0.20169 0.25266-0.53395l0.18349-0.60411-0.21037-0.43972c-1.0213-2.1348-1.2371-2.6149-1.3553-3.0162-0.16926-0.57464-0.16966-0.7215-0.0024-0.88876 0.19462-0.19461 0.49587-0.16285 0.78818 0.0831 0.34795 0.29278 0.81406 1.2525 0.98796 2.0341 0.14946 0.67178 0.20756 0.7023 0.36974 0.19423 0.11296-0.35389 0.0099-0.67881-0.74365-2.3453-0.72856-1.6111-0.81804-2.1943-0.35902-2.34 0.18986-0.0603 0.56941 0.1085 0.78849 0.35058 0.19842 0.21925 0.54746 1.007 0.64992 1.4669 0.04669 0.20955 0.11097 0.4953 0.14284 0.635l0.05795 0.254 0.11245-0.254c0.22784-0.51462 0.16292-0.69547-0.72943-2.032-0.96592-1.4467-1.1225-1.8132-0.88636-2.0741 0.23811-0.26311 0.5123-0.20804 0.94736 0.19027 0.27397 0.25083 0.49522 0.57694 0.73036 1.0765 0.37036 0.78683 0.40559 0.78168 0.51653-0.0756l0.05948-0.45963-1.2319-1.1914c-1.248-1.2069-1.478-1.5273-1.315-1.8319 0.1172-0.219 0.62763-0.21747 0.98915 3e-3 0.37591 0.2292 0.88761 0.7712 1.2237 1.2961l0.28188 0.4403 0.02563-0.54442c0.03211-0.68218 0.01028-0.713-1.3224-1.8668-1.3606-1.1779-1.6677-1.616-1.3533-1.9304 0.35728-0.35728 1.3308 0.15979 2.0354 1.0812 0.12357 0.16156 0.24561 0.27282 0.27119 0.24723 0.09329-0.0933-0.23085-0.98024-0.58447-1.5993-0.58463-1.0235-0.9531-1.7964-1.1042-2.3162-0.12994-0.44697-0.13034-0.5023-0.0051-0.69345 0.17794-0.27157 0.31847-0.26201 0.66868 0.0455 0.58472 0.51339 1.1634 1.9529 1.2819 3.1891 0.07295 0.76054 0.29394 1.7944 0.3972 1.8582 0.04499 0.0278 0.10518-0.0388 0.13374-0.14808 0.10616-0.40596 0.69695-1.4784 0.94572-1.7168 0.46164-0.44228 1.0236-0.28895 1.0221 0.27888-1e-3 0.40502-0.32231 0.94318-1.2195 2.0428l-0.72532 0.889-8.72e-4 0.74084c-5.08e-4 0.40746 0.03326 0.74083 0.07497 0.74083s0.20124-0.20002 0.35451-0.4445c0.46488-0.74152 0.9888-1.3086 1.3871-1.5014 0.33341-0.1614 0.40551-0.16967 0.61367-0.0704 0.18588 0.0887 0.24143 0.17931 0.26205 0.42768 0.02293 0.27606-0.02436 0.36935-0.381 0.75163-0.22395 0.24005-0.80722 0.74769-1.2962 1.1281s-0.93286 0.78485-0.98646 0.89877c-0.0536 0.11393-0.12224 0.49289-0.15253 0.84214l-0.05508 0.635 0.2372-0.26565c0.13046-0.14611 0.42126-0.48028 0.64623-0.74262 0.4219-0.49196 0.92077-0.81303 1.2598-0.81077 0.24249 2e-3 0.35313 0.0743 0.4801 0.31544 0.20699 0.39308-0.34003 0.98937-1.8438 2.0098-0.46974 0.31877-0.9145 0.64635-0.98836 0.72796-0.1015 0.11217-0.44854 1.1912-0.45834 1.4252-7.62e-4 0.019 0.32005-0.29344 0.713-0.69443 0.71271-0.7273 1.3719-1.1606 1.7656-1.1606 0.22911 0 0.56791 0.32145 0.56791 0.53883 0 0.4958-0.67144 1.048-2.4718 2.0328-0.64673 0.35377-1.0842 0.69695-1.0842 0.85052 0 0.0578-0.09509 0.29256-0.21131 0.52164s-0.21147 0.46492-0.21167 0.52407c-5.08e-4 0.14868 0.6316-0.17824 1.0223-0.52875 0.62135-0.55742 1.7902-0.96429 2.2799-0.7936 0.48529 0.16917 0.49534 0.73471 0.01909 1.0738-0.3459 0.2463-1.4384 0.59805-2.1253 0.6843-0.31873 0.04-0.65864 0.11512-0.75535 0.16688-0.09672 0.0518-0.27555 0.0941-0.3974 0.0941-0.30433 0-0.46691 0.4138-0.46691 1.1884v0.60115l0.27517-0.19467c0.15134-0.10707 0.55311-0.43641 0.89282-0.73186 0.93489-0.81311 1.8958-1.1864 2.388-0.9277 0.28608 0.15039 0.31564 0.45253 0.07047 0.72026-0.23988 0.26195-1.5699 0.90944-2.1213 1.0327-0.21992 0.0492-0.52472 0.16552-0.67733 0.25857-0.15261 0.093-0.34588 0.16932-0.42949 0.16949-0.33609 6.8e-4 -0.54143 0.35616-0.60642 1.0497-0.03384 0.36108-0.04328 0.67476-0.02099 0.69705 0.02229 0.0223 0.39729-0.31844 0.83331-0.7572 0.91282-0.91852 1.5507-1.326 2.0779-1.3271 0.38293-8.5e-4 0.61988 0.16177 0.61988 0.42545 0 0.25861-0.62898 0.78974-1.6169 1.3653-0.50668 0.29521-1.1503 0.67866-1.4302 0.8521l-0.50894 0.31535v0.89115c0 0.49014 0.02858 0.89109 0.0635 0.891 0.03493-8e-5 0.17765-0.18081 0.31716-0.40163 0.64785-1.0254 1.6303-1.952 2.244-2.1166 0.36596-0.0982 0.73452 0.0125 0.80748 0.24234 0.10886 0.34301-0.43652 0.89192-1.9937 2.0066-1.466 1.0494-1.3911 0.93755-1.2681 1.8936 0.05584 0.4339 0.12901 0.83904 0.16259 0.90033 0.04005 0.0731 0.20159-0.13088 0.46943-0.59267 0.5237-0.90292 1.4892-1.8934 1.9255-1.9752 0.64555-0.12111 0.90999 0.21976 0.58209 0.75031-0.19095 0.30896-1.0147 1.109-2.0619 2.0025-0.35475 0.30268-0.66811 0.61436-0.69636 0.69262-0.07875 0.21817 0.40454 2.0167 0.54191 2.0167 0.03519 0 0.12841-0.23172 0.20715-0.51494 0.27742-0.99784 0.89913-2.0083 1.5063-2.4481 0.58068-0.42065 1.0806-0.2922 0.96208 0.24721-0.03074 0.13995-0.54998 0.96964-1.1539 1.8437-0.60389 0.8741-1.1199 1.6767-1.1467 1.7835-0.04595 0.18308 0.50198 1.5805 0.65738 1.6765 0.03466 0.0214 0.08565-0.18065 0.11332-0.44903 0.10142-0.98394 0.29776-1.8371 0.52925-2.2998 0.20821-0.41615 0.26805-0.4742 0.48876-0.4742 0.55184 0 0.57646 0.66185 0.08502 2.286-0.15499 0.51223-0.34618 1.1878-0.42488 1.5012l-0.14308 0.56986 0.27352 0.42624c0.15044 0.23443 0.46078 0.6605 0.68966 0.94682s0.40236 0.56198 0.38551 0.61257c-0.07439 0.22347-0.31824 0.11246-0.672-0.30593z" fill="#40b117"/>
</svg>
