<svg width="402.97mm" height="20.542mm" version="1.1" viewBox="0 0 402.97 20.542" xmlns="http://www.w3.org/2000/svg">
 <path d="m123.59 20.484c-0.27215-0.0179-2.1772-0.0833-4.2333-0.14527-6.1135-0.18439-11.557-0.79747-17.159-1.9325-2.079-0.42125-4.5122-1.0219-9.133-2.2544-3.4712-0.9259-6.0944-1.5244-8.6262-1.968-1.6503-0.28919-2.4818-0.52393-6.415-1.811-2.4854-0.81332-5.4095-1.753-6.4981-2.0881-8.9085-2.7427-18.001-4.5227-26.994-5.2846-3.9399-0.33377-5.3812-0.39707-10.501-0.46119-5.2692-0.066-8.869 0.0296-13.405 0.35598-2.3521 0.16924-2.6774 0.13864-2.3768-0.22355 0.39111-0.47125 5.2891-1.5973 9.7894-2.2506 5.6689-0.82292 11.899-0.98572 17.318-0.45255 10.214 1.005 15.513 2.1346 30.458 6.4934 2.2981 0.67024 5.7865 1.6815 7.752 2.2472 13.359 3.845 22.773 5.3782 41.234 6.7156 3.3874 0.24539 4.8823 0.2863 13.965 0.38212 32.03 0.33792 34.624 0.3843 34.863 0.62322 0.23129 0.23129-0.20102 0.33782-1.876 0.46224-16.382 1.217-28.488 1.6953-41.674 1.6467-3.296-0.0122-6.2153-0.0367-6.4874-0.0546zm140.47-8.8e-4c-0.30238-0.0178-2.9496-0.0832-5.8827-0.14535-7.0071-0.14844-14.289-0.53936-26.829-1.4403-1.7743-0.12746-2.221-0.23269-1.9859-0.46777 0.23964-0.23964 2.7907-0.28525 34.863-0.62339 10.86-0.1145 12.338-0.17837 20.452-0.88361 15.641-1.3596 23.587-2.8916 39.804-7.6752 17.04-5.0261 22.549-6.2357 33.152-7.2792 8.1084-0.79801 17.765-0.0151 25.323 2.0531 1.494 0.40883 2.0509 0.68841 1.8266 0.91704-0.0872 0.0888-0.75409 0.0766-2.474-0.0455-7.1641-0.50859-15.172-0.53001-21.762-0.0582-6.9685 0.49886-13.843 1.541-20.397 3.0922-4.4817 1.0607-7.9271 2.0723-15.331 4.5011-3.2315 1.0601-4.6733 1.4796-5.6628 1.6474-3.0734 0.52147-4.9974 0.96232-10.124 2.3196-4.5829 1.2134-5.9031 1.5324-8.5766 2.0727-7.8781 1.592-15.417 2.1196-29.578 2.0697-3.4471-0.0121-6.5149-0.0366-6.8173-0.0545zm-83.952-3.6734c-0.70748-0.13741-2.3929-0.99911-3.0008-1.5342-0.89003-0.78344-0.67621-1.2802 1.0367-2.4087 2.6808-1.7661 8.1673-4.1324 10.74-4.6323 2.3873-0.46381 5.936 0.95044 8.2924 3.3047 1.0156 1.0147 1.4016 1.7411 1.4025 2.6395 1e-3 0.70959-0.28863 1.2777-0.70399 1.382-0.5208 0.13071-1.4587-0.29747-2.8267-1.2905-1.5887-1.1532-2.8242-1.5656-4.6596-1.5554-2.2154 0.0124-4.0054 0.71984-6.2126 2.4554-1.886 1.4831-2.8578 1.8747-4.0684 1.6395zm41.478 3e-3c-0.68238-0.13787-1.36-0.54064-2.7798-1.6523-2.2065-1.7276-3.9982-2.4338-6.2061-2.4461-1.9281-0.0108-2.8981 0.33361-4.9855 1.77-1.1988 0.82493-2.0467 1.1898-2.5002 1.076-0.71097-0.17844-0.9303-1.5004-0.42797-2.5795 0.36349-0.78086 1.7029-2.1142 2.9107-2.8975 2.547-1.6518 4.7597-2.2368 6.7691-1.7898 2.7464 0.61101 8.0174 2.9214 10.551 4.6249 1.643 1.1045 1.8438 1.5824 0.98351 2.3398-0.51753 0.45554-1.9108 1.2266-2.5802 1.4279-0.61262 0.18424-1.2276 0.22912-1.7348 0.12662zm-216.4-2.4727c-1.0112-0.85088-0.63185-2.3612 1.0348-4.1198 0.97535-1.0292 1.479-1.8621 1.4773-2.4428-2e-3 -0.62412-0.48732-1.4568-1.4095-2.4175-0.97889-1.0198-1.3733-1.6707-1.5614-2.5766-0.23951-1.1537 0.36504-2.0221 1.3019-1.8701 0.77532 0.12582 2.5598 1.5056 4.7075 3.6398 1.6943 1.6837 2.4604 2.6736 2.4604 3.1794 0 0.51396-0.6246 1.3649-2.1334 2.9066-2.3057 2.3559-4.4234 3.9797-5.1902 3.9797-0.22105 0-0.48222-0.1058-0.68745-0.27849zm390.94-0.1111c-1.0347-0.62306-2.0822-1.5148-3.8613-3.2872-1.8009-1.7941-2.4611-2.6551-2.4611-3.2094 0-1.1466 5.6232-6.535 7.111-6.8142 1.0454-0.19612 1.6448 0.7703 1.2985 2.0936-0.22631 0.86489-0.4818 1.261-1.5077 2.3375-0.90645 0.95121-1.4011 1.8072-1.4029 2.4281-2e-3 0.58074 0.50197 1.4136 1.4773 2.4428 1.6667 1.7587 2.046 3.269 1.0348 4.1198-0.46197 0.38872-0.90738 0.35941-1.6887-0.1111zm-195.57-1.9032c-1.1162-0.44976-3.0808-2.0092-4.4542-3.5357-1.9271-2.1419-2.4518-3.4689-1.7029-4.3071 0.28072-0.31418 0.39248-0.35778 1.0171-0.39682 0.80898-0.0506 2.2468 0.27404 3.055 0.68967 0.27809 0.14303 0.89841 0.58893 1.3785 0.9909 0.90971 0.7617 1.3586 1.045 1.6561 1.045s0.74642-0.28326 1.6561-1.045c0.48008-0.40197 1.1004-0.84787 1.3785-0.9909 0.80816-0.41563 2.246-0.74023 3.055-0.68967 0.62462 0.039 0.73638 0.0826 1.0171 0.39682 0.83266 0.9319 0.0327 2.5814-2.4622 5.0767-2.4482 2.4487-4.2144 3.322-5.5941 2.7661zm-199.75-3.1582c-1.0296-0.61707-1.0633-2.147-0.0582-2.6415 0.85409-0.42019 2.1667-0.15104 2.5111 0.5149 0.24975 0.48296 0.20317 1.1957-0.10809 1.6537-0.52476 0.77225-1.5128 0.97152-2.3448 0.4729zm399.69 0.098c-0.75578-0.37243-1.1215-1.4058-0.7703-2.1766 0.47499-1.0425 2.6808-1.0243 3.1196 0.0257 0.61178 1.4642-0.91188 2.8591-2.3493 2.1508zm-199.46-6.1076c-0.58771-0.28328-0.92585-1.3905-0.69102-2.2626 0.32153-1.194 1.9991-1.194 2.3206 0 0.38502 1.4299-0.57933 2.7688-1.6296 2.2626z"/>
</svg>
