<svg version="1.1" viewBox="0 0 240.99 63.982" xmlns="http://www.w3.org/2000/svg">
 <path d="m26.562 0-12.549 1.9453-14.014 58.875c1.567 0.758 3.2324 1.3552 4.9844 1.7812 1.753 0.434 3.4124 0.75756 4.9824 0.97656 1.56 0.211 2.9521 0.33633 4.1641 0.36133s2.0706 0.03906 2.5586 0.03906c3.774-1e-6 7.2885-0.71644 10.521-2.1484 3.238-1.431 6.0478-3.3672 8.4258-5.8242 2.38-2.46 4.2499-5.3449 5.6289-8.6699 1.379-3.32 2.0625-6.8404 2.0625-10.568 0-2.427-0.29672-4.6957-0.88672-6.8047-0.594-2.103-1.514-3.9378-2.75-5.5078-1.253-1.562-2.814-2.8026-4.707-3.7246-1.884-0.913-4.1257-1.3789-6.7207-1.3789-1.24 0-2.4014 0.1392-3.4824 0.4082-1.08 0.273-2.1623 0.64881-3.2363 1.1328zm37.395 0.81445c-1.136 0-2.2031 0.21453-3.2051 0.64453-0.996 0.437-1.8719 1.0181-2.6289 1.7441-0.758 0.732-1.3632 1.5918-1.8262 2.5918-0.456 1.002-0.68555 2.0653-0.68555 3.1973 0 2.058 0.6723 3.5842 2.0293 4.5762 1.346 0.998 2.8622 1.4961 4.5352 1.4961 1.132 0 2.1943-0.20753 3.1973-0.64453 0.994-0.433 1.8779-1.0093 2.6289-1.7363 0.758-0.732 1.3633-1.5938 1.8203-2.5938 0.46-1 0.68945-2.0671 0.68945-3.2031 0-2.047-0.67743-3.5732-2.0234-4.5762-1.351-0.998-2.8592-1.4961-4.5312-1.4961zm133.37 0c-1.132 0-2.1974 0.21453-3.1934 0.64453-0.994 0.437-1.8798 1.0181-2.6328 1.7441-0.758 0.732-1.3653 1.5918-1.8223 2.5918-0.457 1.002-0.69141 2.0653-0.69141 3.1973 0 2.058 0.6793 3.5842 2.0293 4.5762 1.344 0.998 2.8592 1.4961 4.5312 1.4961 1.138 0 2.2011-0.20753 3.2051-0.64453 0.996-0.433 1.8709-1.0093 2.6309-1.7363 0.755-0.732 1.3634-1.5938 1.8164-2.5938 0.453-1 0.69532-2.0671 0.69532-3.2031 0-2.047-0.6803-3.5732-2.0293-4.5762-1.348-0.998-2.8631-1.4961-4.5391-1.4961zm-107.72 6.8828-12.555 1.9453-7.9414 33.525c-0.647 2.754-1.0218 5.3694-1.1328 7.8574-0.107 2.482 0.27581 4.6847 1.1328 6.5957 0.869 1.918 2.321 3.434 4.375 4.543 2.057 1.101 4.944 1.6543 8.668 1.6543 2.59 0 4.8316-0.21048 6.7246-0.64648 1.89-0.43 3.6437-0.94116 5.2637-1.5352l-0.89453-9.2363c-1.242 0.437-2.4687 0.77172-3.6797 1.0117-1.218 0.244-2.4785 0.36719-3.7715 0.36719-1.57 0-2.7656-0.2193-3.6016-0.6543-0.84-0.428-1.4202-1.0334-1.7422-1.8184-0.324-0.783-0.45939-1.7139-0.40039-2.7969 0.052-1.078 0.23645-2.2365 0.56445-3.4785l3.5606-14.9h13.365l2.4277-9.8789h-13.445zm35.348 11.414c-3.887 0-7.4125 0.70547-10.562 2.1055-3.165 1.408-5.8555 3.3251-8.0625 5.7461-2.215 2.433-3.9205 5.2678-5.1055 8.5098-1.187 3.239-1.7813 6.7001-1.7813 10.369 0 2.425 0.34358 4.7489 1.0176 6.9609 0.674 2.214 1.7632 4.1429 3.2812 5.7949 1.51 1.648 3.428 2.9497 5.748 3.9297 2.319 0.965 5.153 1.4551 8.502 1.4551 2.537 0 4.7265-0.23459 6.5645-0.68359 1.834-0.465 3.5055-0.99598 5.0215-1.584l-0.89453-9.6348c-1.137 0.482-2.4286 0.88889-3.8906 1.2129-1.451 0.32-2.9671 0.48438-4.5371 0.48438-3.181 0-5.3706-0.84583-6.5566-2.5488-1.192-1.703-1.7871-3.9306-1.7871-6.6836 0-4.645 1.1823-8.3467 3.5273-11.098 2.354-2.749 5.5166-4.1289 9.5176-4.1289 1.675 0 3.09 0.1723 4.25 0.5293 1.159 0.35 2.2813 0.73583 3.3613 1.1738l4.1328-9.4004c-1.571-0.754-3.3066-1.3553-5.2266-1.8203-1.912-0.461-4.0865-0.68945-6.5195-0.68945zm34.859 0c-3.828 0-7.2362 0.8248-10.199 2.4668-2.966 1.653-5.4853 3.7742-7.5273 6.3672-2.058 2.589-3.6122 5.5021-4.6602 8.7441-1.053 3.235-1.5742 6.4777-1.5742 9.7227 0 2.587 0.33988 4.9481 1.0469 7.0801 0.707 2.133 1.7401 3.9849 3.1191 5.5469 1.377 1.57 3.1168 2.7815 5.2188 3.6445 2.108 0.863 4.5941 1.2988 7.4551 1.2988 3.942 0 7.4142-0.82666 10.408-2.4727 2.998-1.646 5.4923-3.7645 7.4883-6.3535 2-2.595 3.5161-5.5151 4.5371-8.7441 1.02-3.245 1.5332-6.4896 1.5332-9.7246 0-2.589-0.34773-4.956-1.0527-7.084-0.7-2.136-1.7413-3.9788-3.1113-5.5488-1.385-1.562-3.1367-2.7835-5.2637-3.6445-2.137-0.863-4.609-1.2988-7.418-1.2988zm65.91 0.16211c-2.151 0-4.0862 0.09411-5.7852 0.28711-1.699 0.189-3.2443 0.43142-4.6133 0.73242-1.384 0.292-2.6234 0.61684-3.7324 0.96484-1.105 0.348-2.1212 0.66759-3.0312 0.93359l-9.8047 40.654h12.07l7.8574-32.959c1.623-0.324 3.2124-0.49024 4.7754-0.49024 1.621 0 2.8164 0.31069 3.6074 0.92969 0.77901 0.629 1.2812 1.4396 1.4942 2.4316 0.223 1.004 0.23396 2.1645 0.043 3.4805-0.189 1.328-0.44548 2.6878-0.77148 4.0938l-5.3438 22.516h12.066l5.5137-23c1.56-6.368 1.1442-11.392-1.2598-15.062-2.406-3.671-6.7639-5.5117-13.086-5.5117zm-171.25 0.98047-10.123 42.598h11.988l10.203-42.598zm133.37 0-10.123 42.598h11.996l10.201-42.598zm-29.166 9.0664c2.267 0 3.8352 0.75667 4.6992 2.2637 0.865 1.513 1.2988 3.6243 1.2988 6.3203 0 1.672-0.2306 3.4437-0.6836 5.3027-0.463 1.864-1.1543 3.5825-2.0723 5.1445-0.921 1.566-2.0564 2.8618-3.3984 3.8848-1.353 1.03-2.9162 1.543-4.6992 1.543-2.269 0-3.8302-0.75862-4.6992-2.2656-0.857-1.515-1.293-3.6193-1.293-6.3223 0-1.675 0.22655-3.4397 0.68555-5.3047 0.463-1.861 1.1483-3.5726 2.0723-5.1426 0.914-1.563 2.0465-2.8577 3.3965-3.8887 1.345-1.019 2.9164-1.5352 4.6934-1.5352zm-133.41 0.07422c2.319 0 3.9143 0.7325 4.7773 2.1875 0.863 1.461 1.2969 3.4813 1.2969 6.0723 0 2.109-0.35469 4.1371-1.0547 6.0801s-1.66 3.6806-2.873 5.2246c-1.213 1.537-2.6599 2.7715-4.3379 3.6855-1.673 0.913-3.4538 1.3789-5.3438 1.3789-0.593 0-1.0721-2e-3 -1.4551-2e-3s-0.69956-0.01588-0.97656-0.04687c-0.262-0.027-0.52567-0.06609-0.76367-0.12109-0.243-0.051-0.52761-0.10511-0.84961-0.16211l5.3418-22.188c0.977-0.859 2.0672-1.4301 3.2852-1.7051 1.214-0.259 2.1931-0.4043 2.9531-0.4043z" fill="#4d4d4d"/>
</svg>
