<svg version="1.1" viewBox="0 0 255.08 55" xmlns="http://www.w3.org/2000/svg" xmlns:xlink="http://www.w3.org/1999/xlink"
	style="background-color: transparent;">
	<defs>
		<linearGradient id="linearGradient2356" x1="286.06" x2="28.843" y1="23.498" y2="23.963"
			gradientUnits="userSpaceOnUse">
			<stop style="stop-color:#ffe7c9;stop-opacity:.8" offset="0" />
			<stop style="stop-color:#7f7" offset=".42049" />
			<stop style="stop-color:#ffe7c9;stop-opacity:.8" offset="1" />
		</linearGradient>

		<symbol id="def-main-text">

			<text transform="matrix(1 0 0 1 17 40)" style=" font-family:'Open Sans', sans-serif, Arial, Helvetica;font-size:0px;letter-spacing:3px;paint-order: stroke
				fill markers;stroke-linecap: round;stroke-linejoin: round;">
				<tspan style="font-size:20px;">Подякувати</tspan>
			</text>

		</symbol>
		<style>
			.base-fill {
				fill: #05668d;
			}

			.animStrokeColor-a2 {
				animation: colors-stroke-swith-2 600ms linear infinite;
			}

			.animStrokeColor-a3 {
				animation: colors-stroke-swith-2 600ms linear 300ms infinite;
			}

			.animStrokeColor-a2-2 {
				animation: colors-stroke-swith-2 600ms linear 150ms infinite;
			}

			.animStrokeColor-a3-2 {
				animation: colors-stroke-swith-2 600ms linear 450ms infinite;
			}

			@keyframes colors-stroke-swith-2 {

				0%,
				100% {
					stroke: #fff;
				}

				50% {
					stroke: #f00;
				}
			}
		</style>
	</defs>
	<g>
		<use class="animStrokeColor-a2" xlink:href="#def-main-text" style="fill:none;stroke-width: 5px;" />
		<use class="animStrokeColor-a3" xlink:href="#def-main-text" style="fill:#ff3f3f;stroke-width: 3px;" />
	</g>
	<path
		d="M 189.50675,51 H 13.68 c -3.9982,0 -8.2122,-2.5744 -8.2122,-5.7245 v -23.382 c 0,-3.15 4.2139,-5.7245 8.2122,-5.7245 h 175.82675 m 0,2.44 H 13.68 c -2.3366,0 -5.4885,1.4436 -5.4885,3.2844 v 23.382 c 0,1.841 3.1511,3.2827 5.4885,3.2827 h 175.82675"
		style="fill:none;stroke-dasharray:5, 2, 1, 2;stroke-width:5;stroke:url(#linearGradient2356)">
		<animate style="stroke:url(#linearGradient2356)" attributeName="stroke-dashoffset" attributeType="XML"
			dur="0.6s" from="10" repeatCount="indefinite" to="0" />
	</path>
	<g transform="matrix(.43956 0 0 .43956 174 10.3)">
		<circle cx="50" cy="50" r="40.272" class="base-fill"
			style="paint-order:stroke markers fill;stroke-width:19.457;stroke:#3e2a00" />
		<g transform="matrix(1.2621 0 0 1.3028 -13.072 -14.989)">
			<path
				d="m87.115 49.884c0 19.829-16.628 35.903-37.141 35.903-20.512 0-37.141-16.074-37.141-35.903s16.628-35.903 37.141-35.903c20.512-2e-6 37.141 16.074 37.141 35.903z"
				style="fill:none;stroke-dasharray:5.00000008, 7.10000011;stroke-width:4.9517;stroke:#fff">
				<animateTransform attributeName="transform" begin="0s" calcMode="linear" dur="16s" keyTimes="0;1"
					repeatCount="indefinite" type="rotate" values="-720 50 50;0 50 50" />
			</path>
		</g>
		<path
			d="m88.884 50c0 21.476-17.41 38.884-38.884 38.884-21.476 0-38.884-17.41-38.884-38.884 0-21.476 17.41-38.884 38.884-38.884 21.476-1e-6 38.884 17.41 38.884 38.884z"
			style="fill:none;paint-order:stroke markers fill;stroke-dasharray:12.3, 49.1;stroke-miterlimit:0;stroke-width:22.231;stroke:#fff">
			<animateTransform attributeName="transform" begin="0s" calcMode="linear" dur="11.8s" keyTimes="0;1"
				repeatCount="indefinite" type="rotate" values="0 50 50;-360 50 50" />
		</path>
	</g>

	<g transform="matrix(.46 0 0 .34 168 4)">
		<path class="animStrokeColor-a2-2"
			d="m43.529 4.0192c-1.8227 7e-3 -2.7409 0.1739-4.8447 0.87799-6.7433 2.2568-10.646 6.6495-12.151 13.675-0.45533 2.1258-0.55516 3.5018-0.5514 7.6212 5e-3 5.6166 0.40518 8.2143 1.8939 12.303 1.1709 3.2158 1.8913 6.4664 1.8934 8.5447 3e-3 2.5785-0.29619 2.8148-4.9155 3.8897-12.234 2.8468-15.603 4.1717-18.903 7.4342-2.6723 2.6416-3.8934 5.9895-3.6101 9.8971 0.25302 3.4901 1.4271 6.3393 4.2798 10.384 1.7506 2.4822 1.7629 2.9634 0.14159 5.6327-1.6747 2.7573-2.2479 4.6019-2.0236 6.5102 0.35304 3.0038 1.6673 5.2272 5.3222 9.0026 1.0908 1.1268 1.9957 2.1729 2.0107 2.3249 0.0151 0.15199 5e-3 1.1896-0.0222 2.3053-0.0667 2.7377 0.49843 3.9435 3.1259 6.6678 1.5732 1.6312 2.2242 2.5352 2.6903 3.7388 1.2486 3.2242 3.6375 5.9209 6.5324 7.3737 3.8726 1.9435 11.932 3.052 16.618 2.2856 3.528-0.57703 6.1443-2.6087 9.4676-7.3515 1.0561-1.5071 1.8377-2.3308 2.5637-2.7011 0.5744-0.29304 1.1224-0.5328 1.2175-0.5328 0.24326 0-0.0723 1.9145-0.83407 5.0602-0.35826 1.4796-0.60215 2.7398-0.54209 2.7998 0.0601 0.0601 0.49574-0.56704 0.96842-1.3932 1.1658-2.0376 4.4523-6.3824 5.7118-7.5515 1.5306-1.4206 2.2416-1.8257 3.206-1.8257 0.69875 0 0.97452 0.17009 1.3953 0.85989 1.1218 1.8391 1.8796 6.0241 2.2877 12.634 0.11232 1.819 0.24686 3.0096 0.2992 2.6458 0.18517-1.287 1.4136-5.973 1.942-7.4083 1.297-3.5229 3.2159-6.0929 4.5393-6.0798 1.777 0.0176 5.387 2.7589 9.6836 7.353 2.8249 3.0205 7.1233 8.0152 8.0202 9.3188 0.24703 0.35907 0.45539 0.58178 0.46302 0.49507 8e-3 -0.0867-0.92153-2.1108-2.065-4.4979-5.4546-11.387-7.3208-18.223-5.2741-19.319 0.72297-0.38691 3.3688-0.16701 5.1041 0.42427 2.5149 0.85694 9.274 4.2312 12.039 6.01 0.65669 0.42254 0.22123-0.17184-1.4976-2.0443-5.3976-5.8802-8.1183-9.3204-9.6036-12.144-0.96042-1.8258-1.0055-2.525-0.20981-3.2504 1.171-1.0675 2.4218-1.2696 7.7789-1.2588l5.0663 0.0103-2.3161-0.9555c-4.328-1.7854-7.7749-4.0167-10.05-6.5061-1.5593-1.7061-1.8681-2.3332-1.8681-3.791 0-3.3176 6.1956-9.6283 15.666-15.957 1.1218-0.74974 2.0046-1.3983 1.9616-1.4412-0.043-0.043-0.75541 0.1549-1.5834 0.43976-2.2282 0.7666-8.3736 2.0507-11.546 2.4128-1.529 0.17453-4.0324 0.25137-5.5676 0.17053-7.045-0.37097-10.34-3.2546-11.655-10.198-0.53503-2.8258 0.0146-10.386 0.9555-13.142 0.0993-0.29104-0.36121 0.39672-1.0232 1.5281-4.2628 7.2851-9.0189 11.843-12.343 11.829-1.2606-5e-3 -1.3945-0.13997-2.0996-2.1125-1.3094-3.6633-2.9361-6.2902-7.1282-11.509-2.5215-3.1393-3.3462-4.6704-3.852-7.1515-0.9647-4.7327-0.72015-14.208 0.54002-20.904 1.1298-6.0033 0.59721-9.1877-1.926-11.514-1.6931-1.5606-2.7283-1.9304-5.378-1.9198z"
			style="fill:none;stroke-width:14;stroke:#ff4" />
		<path class="animStrokeColor-a3-2"
			d="m43.529 4.0192c-1.8226 7e-3 -2.7409 0.1739-4.8447 0.87799-6.7433 2.2568-10.646 6.6495-12.151 13.675-0.45533 2.1258-0.55515 3.5018-0.55139 7.6212 5e-3 5.6166 0.40518 8.2143 1.8939 12.303 1.1709 3.2158 1.8913 6.4664 1.8934 8.5447 3e-3 2.5785-0.2962 2.8148-4.9155 3.8897-12.234 2.8468-15.603 4.1717-18.903 7.4342-2.6723 2.6416-3.8934 5.9895-3.6101 9.8971 0.25302 3.4901 1.4271 6.3393 4.2798 10.384 1.7506 2.4822 1.7629 2.9634 0.14159 5.6327-1.6747 2.7573-2.2479 4.6019-2.0237 6.5102 0.35304 3.0038 1.6673 5.2272 5.3222 9.0026 1.0908 1.1267 1.9957 2.1729 2.0107 2.3249 0.0151 0.15199 5e-3 1.1896-0.0222 2.3053-0.0667 2.7377 0.49844 3.9435 3.1259 6.6678 1.5732 1.6312 2.2242 2.5352 2.6903 3.7388 1.2486 3.2242 3.6375 5.9209 6.5324 7.3737 3.8726 1.9435 11.932 3.052 16.618 2.2856 3.528-0.57703 6.1443-2.6087 9.4676-7.3515 1.0561-1.5071 1.8377-2.3308 2.5637-2.7011 0.5744-0.29303 1.1224-0.53279 1.2175-0.53279 0.24327 0-0.0723 1.9145-0.83406 5.0602-0.35826 1.4796-0.60215 2.7398-0.54209 2.7998 0.0601 0.0601 0.49574-0.56705 0.96842-1.3932 1.1658-2.0376 4.4523-6.3824 5.7118-7.5515 1.5306-1.4206 2.2416-1.8257 3.206-1.8257 0.69875 0 0.97452 0.17009 1.3953 0.85989 1.1218 1.8391 1.8796 6.0241 2.2877 12.634 0.11232 1.819 0.24686 3.0096 0.2992 2.6458 0.18517-1.287 1.4136-5.973 1.942-7.4083 1.297-3.5229 3.2159-6.0929 4.5393-6.0797 1.777 0.0176 5.387 2.7589 9.6836 7.353 2.8249 3.0205 7.1233 8.0152 8.0202 9.3188 0.24703 0.35907 0.45539 0.58178 0.46302 0.49507 8e-3 -0.0867-0.92153-2.1108-2.065-4.4979-5.4546-11.387-7.3208-18.223-5.2741-19.319 0.72297-0.38692 3.3688-0.16702 5.1041 0.42426 2.5149 0.85695 9.274 4.2312 12.039 6.01 0.65669 0.42253 0.22123-0.17185-1.4976-2.0443-5.3976-5.8802-8.1183-9.3204-9.6036-12.144-0.96042-1.8258-1.0055-2.525-0.20981-3.2504 1.171-1.0675 2.4218-1.2696 7.7788-1.2588l5.0663 0.0103-2.3161-0.9555c-4.328-1.7854-7.7749-4.0167-10.05-6.5061-1.5593-1.7061-1.8681-2.3332-1.8681-3.791 0-3.3176 6.1956-9.6283 15.666-15.957 1.1218-0.74974 2.0046-1.3983 1.9616-1.4412-0.043-0.043-0.75541 0.1549-1.5834 0.43976-2.2282 0.7666-8.3736 2.0507-11.546 2.4128-1.529 0.17453-4.0324 0.25137-5.5676 0.17053-7.045-0.37097-10.34-3.2546-11.655-10.198-0.53503-2.8258 0.0146-10.386 0.9555-13.142 0.0993-0.29104-0.36121 0.39672-1.0232 1.5281-4.2628 7.2851-9.0189 11.843-12.343 11.829-1.2606-5e-3 -1.3945-0.13997-2.0996-2.1125-1.3094-3.6633-2.9361-6.2902-7.1283-11.509-2.5215-3.1393-3.3462-4.6704-3.852-7.1515-0.9647-4.7327-0.72015-14.208 0.54002-20.904 1.1298-6.0033 0.59721-9.1877-1.926-11.514-1.6931-1.5606-2.7283-1.9304-5.378-1.9198z"
			style="fill:none;stroke-width:8;stroke:#f09" />
		<path
			d="m43.529 4.0192c-1.8226 7e-3 -2.7409 0.1739-4.8447 0.87799-6.7433 2.2568-10.646 6.6495-12.151 13.675-0.45533 2.1258-0.55515 3.5018-0.55139 7.6212 5e-3 5.6166 0.40518 8.2143 1.8939 12.303 1.1709 3.2158 1.8913 6.4664 1.8934 8.5447 3e-3 2.5785-0.2962 2.8148-4.9155 3.8897-12.234 2.8468-15.603 4.1717-18.903 7.4342-2.6723 2.6416-3.8934 5.9895-3.6101 9.8971 0.25302 3.4901 1.4271 6.3393 4.2798 10.384 1.7506 2.4822 1.7629 2.9634 0.14159 5.6327-1.6747 2.7573-2.2479 4.6019-2.0236 6.5102 0.35304 3.0038 1.6673 5.2272 5.3222 9.0026 1.0908 1.1267 1.9957 2.1729 2.0107 2.3249 0.0151 0.15199 5e-3 1.1896-0.0222 2.3053-0.0667 2.7377 0.49844 3.9435 3.1259 6.6678 1.5732 1.6312 2.2242 2.5352 2.6903 3.7388 1.2486 3.2242 3.6375 5.9209 6.5324 7.3737 3.8726 1.9435 11.932 3.052 16.618 2.2856 3.528-0.57703 6.1443-2.6087 9.4676-7.3515 1.0561-1.5071 1.8377-2.3308 2.5637-2.7011 0.5744-0.29303 1.1224-0.53279 1.2175-0.53279 0.24327 0-0.0723 1.9145-0.83406 5.0602-0.35826 1.4796-0.60215 2.7398-0.54209 2.7998 0.0601 0.0601 0.49574-0.56705 0.96842-1.3932 1.1658-2.0376 4.4523-6.3824 5.7118-7.5515 1.5306-1.4206 2.2416-1.8257 3.206-1.8257 0.69875 0 0.97452 0.17009 1.3953 0.85989 1.1218 1.8391 1.8796 6.0241 2.2877 12.634 0.11232 1.819 0.24686 3.0096 0.2992 2.6458 0.18517-1.287 1.4136-5.973 1.942-7.4083 1.297-3.5229 3.2159-6.0929 4.5393-6.0797 1.777 0.0176 5.387 2.7589 9.6836 7.353 2.8249 3.0205 7.1233 8.0152 8.0202 9.3188 0.24703 0.35907 0.45539 0.58178 0.46302 0.49507 8e-3 -0.0867-0.92153-2.1108-2.065-4.4979-5.4546-11.387-7.3208-18.223-5.2741-19.319 0.72297-0.38692 3.3688-0.16702 5.1041 0.42426 2.5149 0.85695 9.274 4.2312 12.039 6.01 0.65669 0.42253 0.22123-0.17185-1.4976-2.0443-5.3976-5.8802-8.1183-9.3204-9.6036-12.144-0.96042-1.8258-1.0055-2.525-0.20981-3.2504 1.171-1.0675 2.4218-1.2696 7.7788-1.2588l5.0664 0.0103-2.3161-0.9555c-4.328-1.7854-7.7749-4.0167-10.05-6.5061-1.5593-1.7061-1.8681-2.3332-1.8681-3.791 0-3.3176 6.1956-9.6283 15.666-15.957 1.1218-0.74974 2.0046-1.3983 1.9616-1.4412-0.043-0.043-0.75541 0.1549-1.5834 0.43976-2.2282 0.7666-8.3736 2.0507-11.546 2.4128-1.529 0.17453-4.0324 0.25137-5.5676 0.17053-7.045-0.37098-10.34-3.2546-11.655-10.198-0.53503-2.8258 0.0146-10.386 0.9555-13.142 0.0993-0.29104-0.36121 0.39672-1.0232 1.5281-4.2628 7.2851-9.0189 11.843-12.343 11.829-1.2606-5e-3 -1.3945-0.13997-2.0996-2.1125-1.3094-3.6633-2.9361-6.2902-7.1283-11.509-2.5215-3.1393-3.3462-4.6704-3.852-7.1515-0.9647-4.7327-0.72015-14.208 0.54002-20.904 1.1298-6.0033 0.59721-9.1877-1.926-11.514-1.6931-1.5606-2.7283-1.9304-5.378-1.9198z"
			style="fill:#fff5d5" />
		<path style="stroke:royalblue;fill: indigo;"
			d="m91.404 130.81c8e-3 -0.0867-0.92168-2.1108-2.0651-4.4979-5.4546-11.387-7.3209-18.223-5.2742-19.319 0.72297-0.38692 3.369-0.16694 5.1043 0.42434 2.5149 0.85695 9.274 4.2313 12.039 6.0101 0.65669 0.42253 0.22105-0.17219-1.4978-2.0447-5.3976-5.8802-8.1181-9.3204-9.6034-12.144-0.96042-1.8258-1.0055-2.5248-0.20981-3.2502 1.171-1.0675 2.4215-1.2699 7.7786-1.2591l5.0666 0.0102-2.3162-0.95545c-4.328-1.7854-7.7747-4.0167-10.05-6.5061-1.5593-1.7061-1.8682-2.3329-1.8682-3.7907 0-3.3176 6.1956-9.6286 15.666-15.957 1.1218-0.74974 2.0046-1.3983 1.9616-1.4413-0.043-0.043-0.75553 0.15496-1.5835 0.43982-2.2282 0.7666-8.3736 2.051-11.546 2.4131-1.529 0.17453-4.0323 0.25106-5.5676 0.17022-7.045-0.37098-10.34-3.2542-11.655-10.198-0.53503-2.8258 0.0146-10.386 0.95552-13.143 0.0993-0.29104-0.361 0.39648-1.023 1.5278-4.2628 7.2851-9.0189 11.843-12.343 11.829-1.2606-5e-3 -1.3944-0.13984-2.0994-2.1124-1.3094-3.6633-2.9365-6.2902-7.1286-11.509-2.5215-3.1393-3.3463-4.6706-3.852-7.1517-0.9647-4.7327-0.71972-14.208 0.54045-20.904 1.1298-6.0033 0.5971-9.1878-1.9261-11.514-1.6931-1.5606-2.7283-1.9301-5.378-1.9195-1.8226 7e-3 -2.741 0.1737-4.8448 0.87779-6.7433 2.2568-10.647 6.6495-12.151 13.675-0.45533 2.1258-0.55481 3.5018-0.55105 7.6213 5e-3 5.6166 0.40496 8.2143 1.8937 12.303 1.1709 3.2158 1.8911 6.4665 1.8933 8.5448 3e-3 2.5785-0.29578 2.8147-4.915 3.8896-12.234 2.8468-15.603 4.1717-18.903 7.4342-2.6723 2.6416-3.8935 5.9894-3.6102 9.897 0.25302 3.4901 1.4273 6.3391 4.28 10.384 1.7506 2.4822 1.7626 2.9637 0.14138 5.633-1.6747 2.7573-2.2481 4.6018-2.0238 6.5101 0.35304 3.0038 1.6676 5.2273 5.3225 9.0027 1.0908 1.1267 1.9956 2.173 2.0106 2.325 0.0151 0.15199 5e-3 1.1892-0.0221 2.3049-0.0667 2.7377 0.49852 3.9434 3.126 6.6678 1.5732 1.6312 2.2238 2.5355 2.6898 3.7391 1.2486 3.2242 3.6375 5.9208 6.5325 7.3736 3.8726 1.9435 11.933 3.052 16.618 2.2856 3.528-0.57703 6.1443-2.6086 9.4677-7.3513 1.0561-1.5071 1.8378-2.3307 2.5637-2.7011 0.5744-0.29303 1.1222-0.5328 1.2172-0.5328 0.24328 0-0.0722 1.9146-0.83394 5.0603-0.35826 1.4796-0.60225 2.7393-0.54219 2.7994 0.0601 0.0601 0.49594-0.56675 0.96862-1.3929 1.1658-2.0376 4.4521-6.3827 5.7116-7.5518 1.5306-1.4207 2.2414-1.8254 3.2058-1.8254 0.69875 0 0.97481 0.17009 1.3956 0.85989 1.1218 1.8391 1.8796 6.0241 2.2877 12.634 0.11232 1.819 0.24705 3.0096 0.29939 2.6458 0.18516-1.287 1.4135-5.973 1.9419-7.4083 1.297-3.5229 3.2156-6.0927 4.539-6.0796 1.777 0.0176 5.3869 2.7587 9.6835 7.3529 2.8249 3.0205 7.1236 8.015 8.0205 9.3187 0.24703 0.35907 0.45539 0.5819 0.46302 0.49518zm-58.541-8.4624c-2.8791-0.43232-5.9593-1.2637-7.5279-2.0318-2.6518-1.2985-3.9033-2.9129-6.3774-8.2267-0.2271-0.48776-1.1706-1.552-2.0966-2.3651-2.3585-2.0706-2.8081-3.0481-2.6257-5.7088 0.0792-1.156 0.0365-2.3847-0.095-2.7305-0.13147-0.34579-1.2946-1.7262-2.5848-3.0677-3.0732-3.1953-3.8553-4.3301-4.4188-6.4121-0.62471-2.3079-0.28363-3.839 1.4759-6.6255 0.72169-1.1429 1.3837-2.3034 1.4711-2.5788 0.39783-1.2534-0.19694-2.8503-2.1622-5.8051-2.8244-4.2465-3.7176-6.9045-3.4935-10.396 0.246-3.833 2.5146-7.022 6.4239-9.0302 3.217-1.6525 4.794-2.1316 14.684-4.461 1.6735-0.39415 3.5785-0.97696 4.2333-1.2951 1.016-0.49367 1.2568-0.77042 1.6421-1.8872 0.90606-2.6266 0.4765-6.0065-1.5114-11.892-1.4045-4.1583-1.6852-5.6284-1.8947-9.9219-0.17007-3.4858 0.17703-7.6061 0.86242-10.237 1.1342-4.3544 3.9098-7.7878 7.8868-9.7558 6.0742-3.0058 10.543-2.4011 12.052 1.6307 0.68188 1.8225 0.68471 3.5452 0.0118 7.1706-0.29174 1.5717-0.59469 3.2149-0.67322 3.6514-0.0785 0.43656-0.24836 2.9887-0.37739 5.6714-0.25655 5.3339 0.0214 11.461 0.62051 13.678 0.53234 1.9698 1.8397 4.2751 3.8399 6.7712 5.4264 6.7718 6.541 8.8423 8.4785 15.751 2.6491 9.4454 2.1728 16.278-1.5724 22.555-0.56439 0.94588-1.3784 2.6795-1.8088 3.8525-0.82865 2.258-1.6477 4.8788-1.5247 4.8788 0.0404 0 0.4404-0.56555 0.88888-1.2568 0.86234-1.3291 2.0978-2.6219 2.3064-2.4134 0.35341 0.35341 0.93624 5.5778 0.95697 8.578 0.0388 5.6119-0.90817 8.7046-3.4406 11.237-1.0725 1.0725-3.7617 2.8947-4.2838 2.9026-0.0896 1e-3 -0.22186-0.82177-0.29394-1.8292-0.10071-1.4076-0.32442-2.1743-0.96622-3.3115-0.79466-1.4081-0.81569-1.5175-0.43367-2.2563 0.71812-1.3887 0.50694-3.5377-0.67687-6.8881-1.4587-4.1283-1.4404-3.9796-0.6763-5.4874 0.85454-1.6864 1.2234-4.5729 0.95705-7.4904-0.32715-3.5841-0.82543-5.0018-2.344-6.6687l-0.66396-0.72885 0.7921-0.85865c1.2844-1.3923 1.4173-1.6406 1.7018-3.1795 0.3406-1.8424-0.34163-8.2642-1.0464-9.8499-0.61609-1.3862-2.4421-3.0364-4.368-3.9474-2.3421-1.108-6.2639-2.0157-9.4729-2.1925-2.5633-0.14124-2.855-0.11073-3.0187 0.31578-0.38819 1.0116 0.22076 1.3101 3.3356 1.635 6.4027 0.66796 10.305 2.2434 11.558 4.666 0.43427 0.83979 1.1262 5.2655 1.1408 7.2976 0.0189 2.6142-1.1441 4.4314-3.6385 5.685-3.0189 1.5172-7.5061 2.0703-17.626 2.1725-5.9592 0.0602-7.6956 0.15393-7.8673 0.42469-0.31101 0.49044-0.28426 0.65071 0.18734 1.1223 0.35518 0.35519 1.3481 0.41545 6.813 0.41352 9.5762-3e-3 15.424-0.64324 18.436-2.0171l1.4552-0.66387 0.86422 0.99384c1.1199 1.2878 1.6488 3.0734 1.8328 6.1873 0.25297 4.2819-0.56365 6.6546-2.7048 7.8588-2.0929 1.1771-9.8781 2.6536-19.968 3.7872-5.1401 0.57745-5.9764 0.85449-5.3928 1.7866 0.44322 0.70792 1.4391 0.68398 8.4901-0.20414 7.5846-0.95534 13.442-2.0587 16.189-3.0498 1.0598-0.38229 1.9585-0.65598 1.9971-0.6082 0.1443 0.17878 1.476 3.8405 1.8599 5.114 0.21933 0.7276 0.40007 1.794 0.40164 2.3699 3e-3 0.93764-0.1698 1.2151-1.6508 2.6572-2.3193 2.2585-6.4102 5.0964-8.0036 5.5522-1.7039 0.48739-6.6038 0.92807-10.332 0.92922-3.0199 1e-3 -3.5586 0.17017-3.5586 1.1178 0 0.9907 1.0053 1.1055 6.6478 0.75924 8.1084-0.49761 9.2322-0.90186 14.969-5.3848l1.641-1.2823 0.50603 1.0064c1.6557 3.2929 0.61732 6.7958-3.2215 10.867-1.61 1.7076-2.566 2.316-4.4246 2.8157-1.7188 0.46212-6.1575 0.53006-8.7913 0.13456zm-6.0038-12.072c0-0.37304-4.8352-1.0512-6.2679-0.87911-1.2589 0.1512-1.2655 0.15701-0.61123 0.53497 0.7605 0.4393 6.8792 0.74541 6.8792 0.34414zm-5.0271-14.616c0.65484-0.10939 0.9525-0.2196 0.66146-0.24491-0.29105-0.0253-1.9029-0.15244-3.5819-0.28253-1.679-0.13009-3.8055-0.4316-4.7256-0.67002-0.92009-0.23842-1.7267-0.37969-1.7925-0.31392-0.0658 0.0658 0.57099 0.45742 1.415 0.87036 1.3444 0.65774 1.8629 0.75632 4.1837 0.79536 1.457 0.0245 3.1849-0.0449 3.8398-0.15434zm-1.2434-20.038c2.203-0.37211 3.9819-1.0431 3.752-1.4152-0.0909-0.14715-1.8407-0.25658-4.1025-0.25658-4.1603 0-5.1494-0.18813-7.7327-1.4708-0.69123-0.34321-1.2568-0.56432-1.2568-0.49135 0 0.35484 2.1951 3.0443 2.7144 3.3258 0.92572 0.50174 4.4961 0.66775 6.6256 0.30807zm40.402 31.047c0-0.0495 0.24662-1.0318 0.54804-2.1828 0.97453-3.7215 0.66912-10.832-0.68654-15.983l-0.38292-1.4552 1.0648-2.1986c0.58565-1.2093 1.4392-3.2929 1.8968-4.6302 0.74148-2.167 0.84362-2.8346 0.93875-6.1357 0.1012-3.5115-0.17758-6.1495-1.1544-10.924l-0.17798-0.86986 1.4241 0.55706c9.1246 3.5691 14.555 9.2104 16.674 17.322 0.32092 1.2284 0.48538 2.8053 0.48839 4.6827 5e-3 3.323-0.66951 5.8652-2.3038 8.6788-1.3503 2.3247-5.4548 6.4012-8.3635 8.3063-3.2347 2.1187-9.9657 5.3829-9.9657 4.8329z" />
	</g>
</svg>